<svg width="14" height="10" fill="none" xmlns="http://www.w3.org/2000/svg"><path d="M11.787.024a1.608 1.608 0 0 0-.704.275c-.08.051-1.182 1.134-2.94 2.89L5.331 5.996 4.188 4.852C2.948 3.61 2.849 3.525 2.513 3.415c-.163-.053-.232-.062-.471-.063-.294-.002-.392.017-.642.118a1.85 1.85 0 0 0-.836.714c-.177.296-.266.703-.218 1.008.034.223.117.464.218.637.056.098.563.62 1.944 2 2.023 2.024 1.973 1.98 2.352 2.1.259.082.682.083.935.002.409-.129.166.098 4.031-3.768 3.873-3.873 3.642-3.625 3.769-4.036.173-.56.024-1.144-.408-1.596a1.652 1.652 0 0 0-1.4-.507" fill="#6ED2FF" fill-rule="evenodd"/></svg>