<svg width="20" height="20" fill="#000" xmlns="http://www.w3.org/2000/svg"><path d="M1.621.304C1.075.432.505.969.336 1.515c-.144.468-.113.883.102 1.363.105.233.185.317 3.542 3.68L7.416 10 3.98 13.442C.623 16.805.543 16.889.438 17.122c-.215.479-.246.895-.102 1.361.16.518.662 1.021 1.179 1.181.468.144.883.113 1.363-.102.233-.105.317-.185 3.68-3.542L10 12.584l3.442 3.436c3.363 3.357 3.447 3.437 3.68 3.542.48.215.895.246 1.363.102.379-.117.816-.472 1.023-.831.222-.385.297-.97.176-1.384-.146-.503.016-.326-3.678-4.024L12.584 10l3.436-3.442c3.357-3.363 3.437-3.447 3.542-3.68.215-.48.246-.895.102-1.363-.171-.554-.738-1.083-1.298-1.212-.229-.053-.728-.044-.935.017-.472.138-.338.016-4.006 3.677L10 7.416 6.575 3.997C2.907.336 3.041.458 2.569.32 2.37.261 1.839.252 1.621.304"/></svg>