<svg width="21" height="15" viewBox="0 0 21 15" fill="none" xmlns="http://www.w3.org/2000/svg">
<g clip-path="url(#clip0_24_672)">
<path d="M10.4717 14.9917C7.86187 14.9917 5.25201 14.9917 2.64216 14.9917C1.05848 14.9917 0.00807386 13.9083 0.00807386 12.2833C0.00807386 9.11667 0.00807386 5.95 0.00807386 2.79167C-6.16815e-06 1.06667 1.01808 0.00833333 2.67448 0C7.91035 0 13.1462 0 18.3821 0C19.9496 0 21 1.1 21 2.725C21 5.9 21 9.08333 21 12.2583C21 13.9167 19.9496 14.9833 18.3417 14.9833C15.7157 15 13.0977 14.9917 10.4717 14.9917ZM10.504 13.7417C13.13 13.7417 15.7561 13.7417 18.3821 13.7417C19.085 13.7417 19.7961 13.0167 19.7961 12.2833C19.7961 9.09167 19.7961 5.9 19.7961 2.70833C19.7961 1.98333 19.085 1.25 18.3821 1.25C13.13 1.25 7.8861 1.25 2.63408 1.25C1.92304 1.25 1.212 1.98333 1.212 2.70833C1.212 5.9 1.212 9.09167 1.212 12.2833C1.212 13.0083 1.92304 13.7333 2.626 13.7333C5.25201 13.7417 7.87802 13.7417 10.504 13.7417Z" fill="#040404"/>
<path d="M4.00768 3.33325C4.30664 3.34992 4.50864 3.49159 4.70256 3.64159C6.52865 5.05825 8.36282 6.46659 10.1889 7.89159C10.4232 8.07492 10.5687 8.08325 10.8111 7.89159C12.6533 6.44992 14.5036 5.01659 16.362 3.59159C16.96 3.13325 17.6145 3.34159 17.7357 4.02492C17.8084 4.43325 17.6145 4.70825 17.3074 4.94159C15.8288 6.07492 14.3582 7.21659 12.8796 8.35825C12.2736 8.82492 11.6756 9.29159 11.0696 9.74992C10.6495 10.0666 10.3343 10.0666 9.92226 9.74992C7.82146 8.13325 5.72065 6.50825 3.62792 4.88325C3.30472 4.63325 3.1512 4.32492 3.29664 3.90825C3.434 3.55825 3.68448 3.36659 4.00768 3.33325Z" fill="#040404"/>
</g>
<defs>
<clipPath id="clip0_24_672">
<rect width="21" height="15" fill="white"/>
</clipPath>
</defs>
</svg>
