<svg width="19" height="18" fill="none" xmlns="http://www.w3.org/2000/svg"><path d="M3.42.019c-.347.064-.716.27-1.077.602-.692.634-1.57 1.503-1.708 1.69C.181 2.927 0 3.525.001 4.402c.001.899.176 1.612.691 2.81 1.676 3.899 4.467 6.976 8.349 9.209 2.161 1.243 4.244 1.794 5.556 1.471a3.279 3.279 0 0 0 1.046-.494c.113-.086.579-.527 1.035-.982.918-.915 1.093-1.139 1.229-1.57.06-.188.08-.32.079-.526 0-.33-.052-.544-.21-.862-.109-.22-.211-.331-1.371-1.499-.689-.694-1.338-1.323-1.442-1.397-.413-.295-.746-.41-1.175-.405-.633.008-1.115.326-2.168 1.428-.495.518-.456.511-1.026.184-.838-.48-1.553-1.044-2.392-1.889-.865-.87-1.424-1.573-1.874-2.357-.225-.393-.29-.556-.256-.645.011-.029.358-.388.77-.798.687-.682.76-.766.88-1.001.29-.572.301-1.057.036-1.611-.159-.334-.349-.549-1.429-1.618C4.982.517 4.668.258 4.196.094 4.011.03 3.584-.011 3.42.019m.557 1.216c.103.052.365.248.583.435.529.454 2.058 1.968 2.208 2.186.106.154.12.195.12.368a.51.51 0 0 1-.102.353c-.055.087-.437.478-.848.87s-.79.775-.841.853c-.205.306-.205.593.001 1.051.278.618.677 1.244 1.249 1.959.367.459 1.598 1.706 2.061 2.088a15.05 15.05 0 0 0 2.237 1.546c.323.177.413.212.57.224.348.025.388-.004 1.341-.944.939-.926 1.033-.996 1.346-.997.135 0 .209.02.326.089.089.052.657.593 1.38 1.313 1.331 1.327 1.366 1.37 1.365 1.686-.002.314-.052.381-1.038 1.364-.835.831-.929.915-1.147 1.021-.782.381-2.027.241-3.522-.396a18.836 18.836 0 0 1-4.648-2.872c-.541-.456-1.647-1.57-2.11-2.127-1.405-1.69-2.633-3.767-3.079-5.209a6.021 6.021 0 0 1-.282-1.974c.016-.441.063-.608.271-.969.152-.265 1.695-1.813 1.923-1.929.22-.112.399-.109.636.011" fill="#001945" fill-rule="evenodd"/></svg>