<svg width="34" height="34" viewBox="0 0 34 34" fill="none" xmlns="http://www.w3.org/2000/svg">
<circle cx="17" cy="17" r="17" fill="#009FFF"/>
<path d="M12.6425 12.2874C12.7947 12.1351 13.3095 11.7364 13.3095 11.7364C13.3979 11.664 13.4999 11.6101 13.6095 11.5778C13.7191 11.5455 13.834 11.5354 13.9475 11.5483C14.0611 11.5611 14.1709 11.5966 14.2705 11.6525C14.3701 11.7085 14.4575 11.7839 14.5275 11.8741L15.702 13.3676C15.8335 13.5383 15.9 13.7503 15.8893 13.9656C15.8787 14.1808 15.7917 14.3852 15.644 14.5421L15.0857 15.1294C15.0075 15.2075 14.9536 15.3066 14.9305 15.4146C14.9073 15.5227 14.9159 15.6351 14.9552 15.7384C15.1962 16.3844 15.5524 16.9813 16.0065 17.5001C16.5688 18.0307 17.1862 18.4998 17.848 18.8994C18.0024 18.988 18.1814 19.0238 18.358 19.0016C18.5346 18.9794 18.6991 18.9002 18.8267 18.7761L19.3487 18.2759C19.4803 18.133 19.6586 18.0421 19.8515 18.0195C20.0444 17.9968 20.239 18.0441 20.4 18.1526L21.9442 19.1821C22.051 19.2539 22.1421 19.3465 22.2119 19.4545C22.2818 19.5625 22.329 19.6835 22.3507 19.8103C22.3724 19.9371 22.3681 20.0669 22.3382 20.192C22.3082 20.3171 22.2531 20.4348 22.1762 20.5379L21.9007 20.9149C21.6293 21.2782 21.2398 21.5356 20.7992 21.6427C20.3586 21.7499 19.8944 21.7002 19.4865 21.5022C17.9492 20.8209 16.5413 19.8791 15.325 18.7182C14.3694 17.6236 13.5334 16.4303 12.831 15.1584L12.251 13.9114C12.1524 13.6975 12.1164 13.46 12.1472 13.2265C12.178 12.993 12.2743 12.773 12.425 12.5919C12.4889 12.4845 12.5616 12.3827 12.6425 12.2874V12.2874ZM21.3425 16.2532C21.3425 16.1517 21.3425 16.0574 21.3425 15.9559C21.3425 15.0007 20.9656 14.0842 20.2936 13.4054C19.6216 12.7266 18.7088 12.3405 17.7537 12.3309H17.5942C17.5449 12.3346 17.4987 12.3568 17.4651 12.3931C17.4315 12.4294 17.4128 12.4772 17.413 12.5266C17.4139 12.5521 17.4199 12.577 17.4307 12.6C17.4415 12.6231 17.4569 12.6436 17.4758 12.6606C17.4948 12.6775 17.517 12.6904 17.5411 12.6986C17.5651 12.7067 17.5906 12.7099 17.616 12.7079H17.7537C18.605 12.7098 19.4208 13.0488 20.0227 13.6507C20.6246 14.2526 20.9636 15.0684 20.9655 15.9196C20.9655 16.0066 20.9655 16.1009 20.9655 16.1879C20.9635 16.2127 20.9664 16.2376 20.9741 16.2612C20.9818 16.2848 20.9941 16.3067 21.0103 16.3256C21.0264 16.3445 21.0462 16.3599 21.0683 16.3711C21.0905 16.3824 21.1147 16.3891 21.1395 16.3909V16.3909C21.1818 16.3925 21.2234 16.3797 21.2576 16.3547C21.2918 16.3297 21.3166 16.294 21.328 16.2532H21.3425ZM19.9722 15.8254C19.9792 15.7434 19.9792 15.6609 19.9722 15.5789C19.9703 15.068 19.7665 14.5786 19.4053 14.2174C19.044 13.8561 18.5546 13.6523 18.0437 13.6504H17.9205C17.8705 13.6576 17.825 13.6831 17.7929 13.7219C17.7607 13.7608 17.7442 13.8102 17.7465 13.8606C17.7492 13.8855 17.7568 13.9095 17.7688 13.9314C17.7809 13.9532 17.7972 13.9725 17.8167 13.988C17.8363 14.0035 17.8588 14.015 17.8828 14.0217C17.9068 14.0285 17.9319 14.0304 17.9567 14.0274H18.0437C18.2471 14.0274 18.4485 14.0676 18.6364 14.1456C18.8242 14.2237 18.9948 14.3381 19.1383 14.4823C19.2817 14.6264 19.3953 14.7975 19.4725 14.9857C19.5497 15.1739 19.5889 15.3755 19.588 15.5789C19.5916 15.6441 19.5916 15.7095 19.588 15.7747C19.5839 15.7994 19.5847 15.8248 19.5906 15.8492C19.5964 15.8737 19.6071 15.8967 19.6219 15.917C19.6368 15.9373 19.6556 15.9543 19.6771 15.9672C19.6987 15.9802 19.7226 15.9886 19.7475 15.9921C19.7723 15.9952 19.7974 15.9933 19.8214 15.9865C19.8455 15.9797 19.8679 15.9682 19.8875 15.9527C19.907 15.9372 19.9233 15.918 19.9354 15.8961C19.9474 15.8743 19.955 15.8502 19.9577 15.8254H19.9722ZM22.575 16.6591C22.575 16.4779 22.575 16.2894 22.575 16.1081C22.5694 14.7585 22.0348 13.4649 21.0859 12.5051C20.137 11.5453 18.8495 10.996 17.5 10.9751H17.21C17.1855 10.976 17.1615 10.9819 17.1394 10.9923C17.1172 11.0028 17.0974 11.0176 17.0812 11.0359C17.0649 11.0542 17.0525 11.0755 17.0448 11.0988C17.037 11.122 17.034 11.1465 17.036 11.1709C17.0396 11.2203 17.0619 11.2664 17.0982 11.3C17.1345 11.3337 17.1822 11.3523 17.2317 11.3521H17.5C18.7639 11.3521 19.9762 11.8538 20.8707 12.7468C21.7651 13.6399 22.2686 14.8514 22.2705 16.1154C22.2705 16.2821 22.2705 16.4561 22.2705 16.6301C22.2675 16.6545 22.2694 16.6793 22.2763 16.7029C22.2831 16.7265 22.2947 16.7484 22.3103 16.7674C22.3259 16.7864 22.3452 16.802 22.367 16.8133C22.3888 16.8246 22.4127 16.8314 22.4372 16.8331V16.8331C22.4751 16.8215 22.5086 16.7986 22.5331 16.7676C22.5577 16.7365 22.5723 16.6987 22.575 16.6591ZM19.936 15.8254C19.943 15.7434 19.943 15.6609 19.936 15.5789C19.9341 15.068 19.7303 14.5786 19.369 14.2174C19.0078 13.8561 18.5184 13.6523 18.0075 13.6504H17.8842C17.8343 13.6576 17.7888 13.6831 17.7566 13.7219C17.7245 13.7608 17.7079 13.8102 17.7102 13.8606C17.7129 13.8855 17.7205 13.9095 17.7326 13.9314C17.7447 13.9532 17.7609 13.9725 17.7805 13.988C17.8001 14.0035 17.8225 14.015 17.8465 14.0217C17.8706 14.0285 17.8957 14.0304 17.9205 14.0274H18.0075C18.2109 14.0274 18.4123 14.0676 18.6001 14.1456C18.7879 14.2237 18.9585 14.3381 19.102 14.4823C19.2455 14.6264 19.3591 14.7975 19.4363 14.9857C19.5134 15.1739 19.5527 15.3755 19.5517 15.5789C19.5553 15.6441 19.5553 15.7095 19.5517 15.7747C19.5476 15.7994 19.5485 15.8248 19.5543 15.8492C19.5602 15.8737 19.5708 15.8967 19.5857 15.917C19.6005 15.9373 19.6193 15.9543 19.6409 15.9672C19.6624 15.9802 19.6863 15.9886 19.7112 15.9921V15.9921C19.7385 16.001 19.7675 16.0036 19.7959 15.9996C19.8243 15.9956 19.8515 15.9851 19.8753 15.9691C19.899 15.953 19.9188 15.9317 19.9331 15.9068C19.9474 15.8819 19.9558 15.854 19.9577 15.8254H19.936ZM27.0627 14.4769L26.9902 18.7182C26.9902 22.5607 23.4957 25.1417 19.6532 25.1417H15.9122L13.9837 27.3601C13.8715 27.4834 13.7248 27.5702 13.5628 27.6093C13.4007 27.6484 13.2306 27.638 13.0745 27.5794C12.9184 27.5209 12.7835 27.4169 12.6871 27.2809C12.5907 27.1449 12.5373 26.9831 12.5337 26.8164V24.6414C11.1939 24.1501 10.0352 23.2628 9.2116 22.0973C8.388 20.9319 7.93848 19.5434 7.92273 18.1164V14.6001C7.92273 10.5764 10.25 7.64015 15.1292 7.39365C16.1515 7.3429 19.2327 7.39365 19.2327 7.39365C24.3222 7.35015 27.0845 10.2864 27.0845 14.4769H27.0627ZM25.6562 14.7959C25.6127 10.8881 23.3 8.80015 18.95 8.80015C18.95 8.80015 16.34 8.80015 15.47 8.80015C11.3085 9.00315 9.40173 11.5116 9.40173 14.8466V17.8119C9.35696 19.0074 9.69691 20.1857 10.3716 21.1736C11.0463 22.1615 12.0202 22.9069 13.15 23.3001V26.8309C13.1484 26.8644 13.1573 26.8976 13.1757 26.9257C13.194 26.9538 13.2207 26.9755 13.252 26.9875C13.2834 26.9996 13.3177 27.0014 13.3501 26.9928C13.3826 26.9842 13.4115 26.9656 13.4327 26.9397L15.0132 25.1127L16.3182 23.6047H19.3705C22.9012 23.6047 25.6272 21.4296 25.6272 18.2759L25.6562 14.7959Z" fill="white"/>
</svg>
